Patient4_TMGait_0pt8_01_left_31_EMG.mot
version=1
nRows=17
nColumns=33
inDegrees=no
endheader
time	1LAddLong	2LGlutMax	3LGlutMed	4LIliopsoas	5LSemiMemb	6LBicFemLong	7LRecFem	8LVastMed	9LVastLat	10LGasMed	11LTibAnt	12lTibPost	13LPeroneusLong	14LSol	15LExtDigLong	16LFlexDigLong	17RAddLong	18RGlutMax	19RGlutMed	20RIliopsoas	21RSemiMemb	22RBicFemLong	23RRecFem	24RVastMed	25RVastLat	26RGasMed	27RTibAnt	28RTibPost	29RPeroneusLong	30RSol	31RExtDigLong	32RFlexDigLong
34.49	-0.019989	0.99945	-0.010986	0.014954	-0.034943	-0.31265	0.22369	0.016785	-0.32028	-0.14572	0.077972	-0.043488	-0.20676	0.021515	0.039368	0.049438	0.023956	-0.27222	-0.84381	-0.039825	-0.20371	0.001221	0.97427	0.13596	-0.072021	0.00412	-0.31158	-0.001373	0.080261	0.2446	0.001373	-0.002747
34.491	-0.018311	1.0535	-0.054474	-0.012512	-0.014343	-0.38666	0.19852	0.022278	-0.22827	-0.17212	0.036469	-0.03952	-0.08194	-0.044708	0.23056	0.048676	0.032349	-0.17838	-0.86227	-0.041199	-0.18646	-0.12299	0.93613	0.11261	-0.07843	0.011292	-0.2832	-0.00351	0.067444	0.18158	0.001068	-0.007019
34.492	-0.01297	1.1354	0.032043	-0.035095	0.051575	-0.42877	0.21408	0.007172	-0.089722	-0.16083	0.046234	-0.030518	-0.1207	-0.04715	0.028839	0.0383	0.09201	-0.055237	-0.89844	-0.077972	-0.21118	-0.13443	0.92819	0.081787	-0.061035	0.006866	-0.26443	-0.008698	0.000305	0.14923	0.003662	-0.007324
34.493	0.009613	1.2048	0.11795	0.014496	0.11108	-0.27802	0.33295	0.002136	-0.11475	-0.1355	0.057373	-0.028534	-0.13657	-0.073242	-0.039673	0.023041	0.076294	0.063324	-0.88364	-0.11932	-0.22034	-0.13641	0.84228	0.10391	-0.023041	0	-0.10742	-0.006104	0.005951	0.10834	0.001984	-0.007477
34.494	0.002594	1.244	0.078583	0.059509	0.10193	-0.16983	0.43045	-0.004578	-0.45776	-0.14481	0.040131	-0.028229	0.49896	-0.13916	-0.1474	0.036774	0.021057	0.19806	-0.81955	-0.096741	-0.24841	-0.16022	0.83405	0.11047	-0.038757	0.003662	-0.082397	-0.010834	0.028229	0.068054	0.00351	-0.00351
34.495	-0.00412	1.2581	0.076904	0.041046	0.044861	-0.013885	0.43137	0.005798	-0.64331	-0.1059	0.002441	-0.010071	0.59052	-0.076294	-0.016785	0.022278	-0.006409	0.26382	-0.74875	-0.049744	-0.28183	-0.14816	0.80795	0.15182	-0.027466	0.005646	-0.06073	-0.008087	-0.009155	0.058136	0.001678	-0.00473
34.496	-0.003052	1.2529	0.081482	-0.015106	0.018768	0.12695	0.31448	0.010223	-0.70175	-0.058899	0.004578	-0.014496	-0.097198	-0.042572	0.15717	0.022125	-0.071716	0.38696	-0.6308	0.000305	-0.31647	-0.20187	0.79392	0.1947	-0.011444	0.004425	-0.026703	-0.010223	-0.046539	0.037384	-0.001068	-0.006409
34.497	0.006409	1.2576	0.15182	-0.003662	-0.011597	0.053558	0.31921	0.015106	-0.7135	-0.041656	0.020599	-0.007172	-0.40939	-0.062561	0.15137	0.010071	-0.085754	0.43808	-0.75592	0.068817	-0.31784	-0.20721	0.78522	0.19882	-0.015259	0.006561	0.006866	-0.009155	-0.072937	0.018921	-0.001068	-0.013123
34.498	0.014648	1.2567	0.089722	0.021667	-0.005493	-0.41428	0.31189	0.028076	-0.57404	-0.056	0.030365	-0.00473	-0.20462	0.005493	0.066071	0.016937	-0.073853	0.4924	-0.98633	0.054626	-0.3006	-0.050812	0.83832	0.177	-0.012207	0.00412	0.032806	-0.011597	-0.083923	0.008392	0.002136	-0.01236
34.499	0.009308	1.2561	-0.029144	0.014801	-0.015106	-0.48386	0.27908	0.029144	-0.52978	-0.069122	0.010071	0.005493	0.15213	0.019226	0.078888	0.020294	-0.082092	0.53116	-0.95383	-0.016327	-0.24811	0.091858	0.85052	0.20294	-0.051422	0.00473	0.074005	-0.010986	-0.10819	-0.001984	0.000763	-0.019226
34.5	0.015717	1.2581	-0.068207	0.007324	0.013275	-0.22736	0.22583	0.021667	-0.49957	-0.056763	0.000458	0.015869	0.16541	-0.041504	0.1265	0.023956	-0.0177	0.61417	-0.85617	0.010376	-0.24704	0.10696	0.73563	0.13504	-0.063782	0.006866	0.10056	-0.011749	-0.084076	-0.00885	-0.005035	-0.028839
34.501	0.009766	1.2534	-0.074005	-0.016785	0.01358	-0.009613	0.20645	0.013885	-0.54352	-0.032654	-0.000153	0.015106	0.13534	-0.05722	0.14832	0.007019	-0.021057	0.66589	-0.96283	0.031891	-0.224	0.092773	0.62408	0.15167	-0.06958	0.009155	0.17792	-0.009918	-0.11765	-0.024719	0.003815	-0.021057
34.502	-0.002289	1.2282	0.11047	-0.009918	0.022888	0.062714	0.18265	0.022278	-0.51697	-0.020905	0.003204	0.033112	0.036469	-0.026855	0.093384	0.02121	-0.054016	0.74158	-1.3388	0.046997	-0.20798	0.079956	0.60394	0.17792	-0.062561	0.007935	0.24841	-0.007935	-0.18188	-0.054321	-0.001526	-0.025024
34.503	-0.004425	1.0841	0.10376	-0.000916	0.020447	-0.033264	0.12405	0.027618	-0.48767	0.002899	-0.00885	0.044403	0.17166	-0.035706	0.042267	0.009918	-0.087738	0.83679	-1.2733	-0.050507	-0.22125	0.12985	0.68314	0.13611	-0.063934	0.007629	0.27435	-0.011292	-0.19562	-0.067902	0.000916	-0.021667
34.504	-0.005035	1.019	-0.034332	0.010834	-0.001221	-0.27771	0.031433	0.02182	-0.38467	0.000763	-0.015106	0.049591	0.28397	-0.003052	0.026093	0.020447	-0.062866	0.84991	-1.1552	-0.10712	-0.2507	0.11917	0.80704	0.058746	-0.084991	0.005646	0.30701	-0.007324	-0.15213	-0.077667	0.000153	-0.02182
34.505	0.007172	0.94437	-0.11704	0.003357	-0.037689	-0.31372	-0.010376	0.019684	-0.33737	0.019836	-0.014343	0.062866	0.53513	0.031433	-0.007172	0.033112	0.030212	0.98236	-1.004	-0.022583	-0.25131	0.019684	0.93735	0.02533	-0.072632	0.006256	0.27527	0.001526	-0.16876	-0.09903	-0.000458	-0.031891
34.506	0.007629	0.74768	-0.26657	0.006561	-0.05722	-0.35919	-0.066986	-0.000305	-0.31052	0.009613	-0.006256	0.075378	0.73303	0.12222	-0.024261	0.037689	0.076599	0.99518	-0.89844	0.12909	-0.31662	-0.035095	1.1305	0.025482	-0.10208	0.006866	0.032806	-0.007782	-0.092163	-0.13779	0.002441	-0.032806
